:SAMPLES-PER-SECOND 30
:FULLY-SPECIFIED
:DEGREES
1
root  -91.2122 38.1966 1.15085 179.625 79.3544 -179.985
RightUpLeg  -27.0824 1.82231 -1.28032
RightLeg  -0.690333 -2.83356 0.905921
RightFoot  -0.746894 -0.297663 2.74618
RightToes  1.74622e-010 -3.18055e-015 8.94531e-016
Spine  -2.57043 -8.5503 -14.5636
Spine1  13.2582 -13.2994 16.252
HEad  -19.7527 2.50314 1.33293
LeftShoulder1  0 -2.69403e-036 -1.28585e-037
LeftArm  6.14717 -9.83701 -74.5284
LeftForeArm  -33.1153 -41.4629 24.7492
LeftHand  0.875947 6.58656 3.19234
RightShoulder  -2.48481e-017 0 -8.08114e-019
RightArm  10.4091 -69.158 56.0788
RightForeArm  -10.7949 10.9311 3.38406
RightHand  1.36113 -12.6953 -2.03829
LeftUpLeg  17.6083 -4.46611 1.61788
LeftLeg  13.919 -16.8606 -0.583814
LeftFoot  -7.94622 0.279853 -6.36665
LeftToes  4.94765e-010 2.02697e-011 4.00889e-011
2
root  -88.9116 37.7184 1.27379 -171.616 78.2722 -171.042
RightUpLeg  -29.0613 1.83699 0.987761
RightLeg  8.50305 -4.34669 -1.27626
RightFoot  4.09752 -0.059196 0.382273
RightToes  1.74622e-010 -3.18055e-015 8.94531e-016
Spine  -2.44431 -8.91536 -11.7227
Spine1  13.3608 -13.7266 16.3274
HEad  -21.8266 6.16795 0.675815
LeftShoulder1  0 -2.69403e-036 -1.28585e-037
LeftArm  4.68518 -7.4887 -75.6682
LeftForeArm  -33.1617 -42.1878 25.1557
LeftHand  0.842873 6.44816 4.31812
RightShoulder  -2.48481e-017 0 -8.08114e-019
RightArm  10.473 -69.5526 55.1523
RightForeArm  -12.2548 11.2768 3.01338
RightHand  1.38964 -12.8522 -2.21276
LeftUpLeg  17.8006 -7.79946 4.72814
LeftLeg  19.5616 -14.7177 -2.591
LeftFoot  -3.18074 0.856259 -9.65931
LeftToes  4.94765e-010 2.02697e-011 4.00889e-011
3
root  -86.7391 37.2043 1.39476 -162.986 77.0622 -161.341
RightUpLeg  -30.1376 -1.50785 5.46742
RightLeg  17.3896 0.139915 -3.00434
RightFoot  7.81479 0.421547 -2.2941
RightToes  1.74622e-010 -3.18055e-015 8.94531e-016
Spine  -0.949302 -8.85309 -7.8913
Spine1  12.9587 -13.4566 15.8405
HEad  -21.2039 5.09361 0.878427
LeftShoulder1  0 -2.69403e-036 -1.28585e-037
LeftArm  4.58617 -4.57431 -77.816
LeftForeArm  -32.6812 -41.4756 24.7854
LeftHand  0.790211 6.20822 5.24755
RightShoulder  -2.48481e-017 0 -8.08114e-019
RightArm  4.03765 -68.5629 58.5629
RightForeArm  -10.7369 10.4122 3.4086
RightHand  1.37489 -12.8945 -1.86861
LeftUpLeg  15.8888 -7.02902 9.37826
LeftLeg  28.9226 -15.7191 -3.63924
LeftFoot  6.99412 1.84131 -10.093
LeftToes  4.94765e-010 2.02697e-011 4.00889e-011
4
root  -84.8034 36.7614 1.53718 -157.482 76.2548 -154.312
RightUpLeg  -30.3225 -3.63011 8.51631
RightLeg  25.5539 2.9559 -3.42752
RightFoot  5.81771 0.909317 -5.45686
RightToes  1.74622e-010 -3.18055e-015 8.94531e-016
Spine  1.07427 -8.38219 -4.99107
Spine1  13.1243 -12.7216 15.6756
HEad  -20.692 3.69098 1.78039
LeftShoulder1  0 -2.69403e-036 -1.28585e-037
LeftArm  6.23829 -1.51436 -80.7345
LeftForeArm  -31.8616 -38.6553 23.3349
LeftHand  0.750846 5.97813 5.01269
RightShoulder  -2.48481e-017 0 -8.08114e-019
RightArm  -5.83113 -65.4045 65.1609
RightForeArm  -7.18236 8.89236 4.06873
RightHand  1.33228 -12.8233 -1.26562
LeftUpLeg  12.403 -7.49118 12.2136
LeftLeg  39.6181 -13.558 -2.57966
LeftFoot  17.8693 2.65195 -9.26052
LeftToes  4.94765e-010 2.02697e-011 4.00889e-011
5
root  -82.9555 36.5892 1.69514 -155.003 76.0625 -150.703
RightUpLeg  -29.031 -4.82285 10.2959
RightLeg  31.1433 3.95285 -3.82707
RightFoot  0.798898 0.932957 -7.62937
RightToes  1.74622e-010 -3.18055e-015 8.94531e-016
Spine  2.09171 -7.70916 -3.65588
Spine1  13.8703 -11.8429 15.7632
HEad  -20.2753 3.47516 2.85198
LeftShoulder1  0 -2.69403e-036 -1.28585e-037
LeftArm  10.0153 2.07313 -83.8167
LeftForeArm  -31.7708 -33.7684 21.0212
LeftHand  0.711292 5.64154 3.6702
RightShoulder  -2.48481e-017 0 -8.08114e-019
RightArm  -11.3981 -60.5831 71.6676
RightForeArm  -6.74555 9.09184 3.78764
RightHand  1.35655 -12.869 -1.6004
LeftUpLeg  7.63913 -8.21663 13.095
LeftLeg  49.266 -10.1719 1.45748
LeftFoot  21.6939 2.79722 -8.61868
LeftToes  4.94765e-010 2.02697e-011 4.00889e-011
6
root  -81.0124 36.8289 1.82948 -154.486 76.2489 -149.718
RightUpLeg  -25.9033 -4.65046 11.0096
RightLeg  32.8406 3.59454 -4.38636
RightFoot  -3.24044 0.670521 -7.72759
RightToes  1.74622e-010 -3.18055e-015 8.94531e-016
Spine  1.55369 -7.03716 -3.26944
Spine1  14.4662 -11.0047 15.403
HEad  -18.7034 3.09804 3.45519
LeftShoulder1  0 -2.69403e-036 -1.28585e-037
LeftArm  16.1665 6.74618 -86.4984
LeftForeArm  -34.6863 -27.8405 18.4145
LeftHand  0.711803 5.44627 1.78983
RightShoulder  -2.48481e-017 0 -8.08114e-019
RightArm  -10.158 -55.1858 76.9218
RightForeArm  -11.8608 11.9088 1.76776
RightHand  1.46668 -12.9843 -3.25973
LeftUpLeg  2.06542 -9.02047 12.4445
LeftLeg  56.3262 -8.0946 6.01113
LeftFoot  18.8978 1.81473 -6.06144
LeftToes  4.94765e-010 2.02697e-011 4.00889e-011
7
root  -79.0455 37.3008 1.90765 -154.978 76.6633 -149.989
RightUpLeg  -21.6628 -3.26584 11.1681
RightLeg  31.8863 2.39841 -5.0176
RightFoot  -5.73187 0.446781 -6.87527
RightToes  1.74622e-010 -3.18055e-015 8.94531e-016
Spine  0.435802 -6.38178 -2.85584
Spine1  14.6945 -10.0482 14.348
HEad  -16.4386 1.79902 3.42394
LeftShoulder1  0 -2.69403e-036 -1.28585e-037
LeftArm  14.2954 12.2101 -88.1219
LeftForeArm  -30.839 -22.8959 11.2545
LeftHand  0.795841 5.76248 -0.579931
RightShoulder  -2.48481e-017 0 -8.08114e-019
RightArm  -2.92724 -49.7306 81.1513
RightForeArm  -22.4452 16.0541 -2.89947
RightHand  1.57223 -12.9198 -5.22066
LeftUpLeg  -3.5101 -10.1645 10.7973
LeftLeg  60.0413 -7.73527 8.08045
LeftFoot  14.7438 0.839112 -3.16809
LeftToes  4.94765e-010 2.02697e-011 4.00889e-011
